<svg width="170.5" height="38.574" xmlns="http://www.w3.org/2000/svg">

 <g>
  <title>background</title>
  <rect fill="none" id="canvas_background" height="402" width="582" y="-1" x="-1"/>
 </g>
 <g>
  <title>Layer 1</title>
  <rect id="svg_1" height="24.923" width="6.746" fill="#ffffff" y="7.159" x="42.254"/>
  <polygon id="svg_2" points="51.239,32.082 51.239,7.159 61.165,7.159 68.914,25.671 68.914,7.159 75.292,7.159 75.292,32.082   65.349,32.082 57.599,13.402 57.599,32.082 " fill="#ffffff"/>
  <polygon id="svg_3" points="82.251,32.082 82.251,12.716 75.84,12.716 75.84,7.159 95.39,7.159 95.39,12.716 89.013,12.716   89.013,32.082 " fill="#ffffff"/>
  <polygon id="svg_4" points="115.924,7.159 125.683,7.159 125.683,32.082 119.171,32.082 119.171,13.771 114.167,32.082   107.488,32.082 102.45,13.57 102.45,32.082 95.939,32.082 95.939,7.159 105.697,7.159 110.802,25.186 " fill="#ffffff"/>
  <polygon id="svg_5" points="127.754,32.082 127.754,7.159 146.484,7.159 146.484,12.716 134.433,12.716 134.433,17.035   146.132,17.035 146.132,21.838 134.433,21.838 134.433,26.525 146.752,26.525 146.752,32.082 " fill="#ffffff"/>
  <path id="svg_6" d="m148.289,32.082l0,-24.923l12.671,0c3.525,0 5.997,0.736 7.415,2.21c1.417,1.473 2.125,4.05 2.125,7.732l0,5.039c0,3.682 -0.708,6.26 -2.125,7.733c-1.418,1.473 -3.89,2.209 -7.415,2.209l-12.671,0zm6.677,-5.557l4.972,0c1.528,0 2.533,-0.273 3.013,-0.82c0.48,-0.547 0.72,-1.885 0.72,-4.017l0,-4.101c0,-2.132 -0.242,-3.476 -0.728,-4.034c-0.485,-0.558 -1.487,-0.837 -3.005,-0.837l-4.972,0l0,13.809z" fill="#ffffff"/>
  <path id="svg_7" d="m35.789,18.449c2.701,-2.866 2.584,-6.9 -0.136,-9.698c-1.015,-1.044 -2.218,-1.744 -3.478,-2.084c-0.28,-1.049 -0.793,-2.054 -1.533,-2.93c-2.642,-3.127 -6.885,-4.133 -9.852,-1.76c-3.317,2.653 -6.208,5.841 -9.394,8.901c2.004,2.002 3.926,3.92 5.824,5.814c-0.003,0.003 -0.006,0.006 -0.009,0.009c2.948,2.947 5.737,5.736 8.501,8.5l-0.001,0.001l1.674,1.674l1.673,-1.674l0,0c2.264,-2.232 4.553,-4.44 6.731,-6.753m-10.07,-10.15c-2.44,2.259 -4.76,4.649 -7.294,7.191c-1.454,-1.479 -2.95,-3 -4.519,-4.595c2.566,-2.531 4.989,-5.168 7.682,-7.492c1.969,-1.699 5.429,-1.031 7.352,1.04c0.57,0.613 1,1.286 1.29,1.985c-1.604,0.039 -3.191,0.649 -4.511,1.871" fill="#ffffff"/>
  <path id="svg_8" d="m26.857,28.362c-2.005,-2.001 -3.926,-3.92 -5.824,-5.814c0.003,-0.003 0.006,-0.006 0.01,-0.009c-2.997,-2.996 -5.83,-5.828 -8.639,-8.636l0.001,-0.001l-1.539,-1.539l-1.536,1.539l0.002,0.002c-2.307,2.279 -4.644,4.529 -6.866,6.888c-2.701,2.867 -2.584,6.9 0.136,9.698c1.015,1.043 2.218,1.743 3.477,2.084c0.28,1.05 0.793,2.054 1.533,2.93c2.642,3.127 6.885,4.133 9.852,1.76c3.317,-2.654 6.207,-5.841 9.393,-8.902m-10.19,7.475c-1.969,1.699 -5.429,1.031 -7.352,-1.04c-0.569,-0.614 -1,-1.287 -1.29,-1.986c1.602,-0.037 3.19,-0.648 4.509,-1.87c2.44,-2.259 4.761,-4.65 7.294,-7.191c1.455,1.479 2.95,2.999 4.52,4.595c-2.566,2.531 -4.988,5.169 -7.681,7.492" fill="#ffffff"/>
  <path id="svg_9" d="m22.219,19.349c-2.649,-2.693 -5.352,-5.442 -8.313,-8.453c2.567,-2.531 4.989,-5.168 7.682,-7.492c1.969,-1.699 5.429,-1.031 7.352,1.04c2.164,2.331 2.343,5.507 0.239,7.81c-2.235,2.444 -4.634,4.737 -6.96,7.095" fill="#3ca2a2"/>
  <path id="svg_10" d="m16.036,19.892c2.648,2.693 5.352,5.442 8.313,8.453c-2.567,2.531 -4.989,5.168 -7.682,7.492c-1.969,1.699 -5.429,1.031 -7.352,-1.041c-2.164,-2.331 -2.344,-5.507 -0.239,-7.81c2.235,-2.443 4.633,-4.736 6.96,-7.094" fill="#3ca2a2"/>
  <path id="svg_11" d="m29.18,12.256c1.551,-1.696 1.86,-3.867 1.051,-5.825c-1.603,0.038 -3.19,0.648 -4.51,1.87c-2.44,2.259 -4.76,4.65 -7.294,7.191c1.291,1.312 2.549,2.592 3.794,3.858c2.326,-2.357 4.725,-4.65 6.959,-7.094" fill="#3CA2A2"/>
  <path id="svg_12" d="m9.077,26.987c-1.551,1.696 -1.86,3.867 -1.05,5.825c1.602,-0.038 3.19,-0.648 4.509,-1.87c2.44,-2.259 4.76,-4.65 7.294,-7.192c-1.291,-1.312 -2.549,-2.591 -3.794,-3.858c-2.326,2.359 -4.725,4.652 -6.959,7.095" fill="#3ca2a2"/>
 </g>
</svg>