<?xml version="1.0" encoding="utf-8"?>
<!DOCTYPE svg PUBLIC "-//W3C//DTD SVG 1.1//EN" "http://www.w3.org/Graphics/SVG/1.1/DTD/svg11.dtd">
<svg xmlns="http://www.w3.org/2000/svg" xmlns:xlink="http://www.w3.org/1999/xlink" version="1.1" viewBox="0 0 512 512" enable-background="new 0 0 512 512" width="512px" height="512px">
  <g>
    <g>
      <path d="M161.1,250.8c0.2-0.4,114.1-168,114.1-168C108.1,78,11.7,134.6,11.7,170.5C11.7,198,67.8,235,161.1,250.8z" fill="#FFFFFF"/>
      <path d="m332.9,87.3l-115.6,169.9c176.9,11 283.7-50.8 283.7-86.7 0-29.3-63.5-69.4-168.1-83.2z" fill="#FFFFFF"/>
      <path d="m11.4,250.7l-.4,90.9c0,35.8 95.3,87.9 244.6,87.9s244.6-52.2 244.6-88.1l.4-90.3c-56.2,39.5-152.1,60.2-244.3,60.2-92.5,5.68434e-14-188.9-20.9-244.9-60.6z" fill="#FFFFFF"/>
    </g>
  </g>
</svg>
