<?xml version="1.0" encoding="utf-8"?>
<!-- Generator: Adobe Illustrator 19.0.0, SVG Export Plug-In . SVG Version: 6.00 Build 0)  -->
<svg version="1.1" id="Layer_1" xmlns="http://www.w3.org/2000/svg" xmlns:xlink="http://www.w3.org/1999/xlink" x="0px" y="0px"
	 viewBox="-687 613 100 32.2" style="enable-background:new -687 613 100 32.2;" xml:space="preserve">
<style type="text/css">
	.st0{fill:#FFFFFF;}
</style>
<path class="st0" d="M-665.3,620.4c-1,0.9-1.9,1.8-2.9,2.8c0.9-0.9,1.8-1.7,2.7-2.6C-665.4,620.5-665.3,620.5-665.3,620.4
	C-665.2,620.4-665.2,620.4-665.3,620.4C-665.2,620.4-665.2,620.4-665.3,620.4z M-664.8,620.1C-664.9,620.1-664.9,620.1-664.8,620.1
	c-0.1,0.1-0.2,0.2-0.3,0.3c0,0,0,0-0.1,0c0,0,0,0-0.1,0c-1,0.9-1.9,1.8-2.9,2.8c0.9-0.9,1.8-1.7,2.7-2.6c0.2-0.2,0.5-0.4,0.8-0.6
	C-664.7,620-664.8,620-664.8,620.1z M-665.3,620.4c-1,0.9-1.9,1.8-2.9,2.8c0.9-0.9,1.8-1.7,2.7-2.6
	C-665.4,620.5-665.3,620.5-665.3,620.4C-665.2,620.4-665.2,620.4-665.3,620.4C-665.2,620.4-665.2,620.4-665.3,620.4z"/>
<path class="st0" d="M-657.4,620.8c-0.8-0.8-1.8-1.4-2.8-1.6c-0.2-0.8-0.6-1.6-1.2-2.3c-2.1-2.5-5.5-3.3-7.8-1.4
	c-2.6,2.1-4.9,4.6-7.4,7c1.6,1.6,3.1,3.1,4.6,4.6c0,0,0,0,0,0c2.3,2.3,4.5,4.5,6.7,6.7l1.3,1.3l1.3-1.3c1.8-1.8,3.6-3.5,5.3-5.4
	C-655.1,626.2-655.2,623-657.4,620.8z M-674.6,622.5c2-2,4-4.1,6.1-5.9c1.6-1.3,4.3-0.8,5.8,0.8c0.4,0.5,0.8,1,1,1.6
	c-1,0-1.9,0.3-2.8,0.8c-0.1,0-0.1,0.1-0.2,0.2c0,0,0,0,0,0c-0.3,0.2-0.5,0.4-0.8,0.6c-0.9,0.9-1.8,1.7-2.7,2.6c-1,1-1.9,1.9-2.9,2.9
	C-672.2,625-673.4,623.7-674.6,622.5z M-662.5,623.6c-0.9,1-1.8,1.9-2.7,2.8c-0.5,0.5-0.9,0.9-1.4,1.4c-0.5,0.5-0.9,0.9-1.3,1.4
	c-0.7-0.7-1.4-1.4-2.1-2.1c2-2,4-4.1,6.1-5.9c0.7-0.6,1.7-0.8,2.7-0.7C-661.3,621.5-661.7,622.6-662.5,623.6z"/>
<path class="st0" d="M-683.9,637.7c0.8,0.8,1.8,1.4,2.8,1.6c0.2,0.8,0.6,1.6,1.2,2.3c2.1,2.5,5.5,3.3,7.8,1.4c2.6-2.1,4.9-4.6,7.4-7
	c-1.6-1.6-3.1-3.1-4.6-4.6c0,0,0,0,0,0c-2.3-2.3-4.5-4.5-6.7-6.7l-1.3-1.3l-1.3,1.3c-1.8,1.8-3.6,3.5-5.3,5.4
	C-686.1,632.3-686.1,635.5-683.9,637.7z M-666.7,636c-2,2-4,4.1-6.1,5.9c-1.6,1.3-4.3,0.8-5.8-0.8c-0.4-0.5-0.8-1-1-1.6
	c1,0,1.9-0.3,2.8-0.8c0.1,0,0.1-0.1,0.2-0.2c0,0,0,0,0,0c0.3-0.2,0.5-0.4,0.8-0.6c0.9-0.9,1.8-1.7,2.7-2.6c1-1,1.9-1.9,2.9-2.9
	C-669.1,633.5-667.9,634.8-666.7,636z M-678.8,634.9c0.9-1,1.8-1.9,2.7-2.8c0.5-0.5,0.9-0.9,1.4-1.4c0.5-0.5,0.9-0.9,1.3-1.4
	c0.7,0.7,1.4,1.4,2.1,2.1c-2,2-4,4.1-6.1,5.9c-0.7,0.6-1.7,0.8-2.7,0.7C-680,637-679.6,635.9-678.8,634.9z"/>
<path class="st0" d="M-664.7,620c-0.3,0.2-0.5,0.4-0.8,0.6c0.1-0.1,0.1-0.1,0.2-0.2c0,0,0,0,0.1-0.1c0,0,0,0,0.1,0
	c0.1-0.1,0.2-0.2,0.3-0.2c0,0,0,0,0,0C-664.8,620-664.7,620-664.7,620z"/>
<g>
	<path class="st0" d="M-633.5,630.1c-0.8-0.8-2.6-1.9-5.4-3.4c-2.8-1.4-4.2-2.5-4.2-3.2v-2.8c0-0.5,0.2-0.8,0.7-0.8h3
		c0.5,0,0.8,0.3,0.8,0.8v3.3h6.2v-4.8c0-1.7-0.4-3-1.2-3.8c-0.8-0.8-2.4-1.2-4.8-1.2h-5c-2.4,0-4,0.4-4.8,1.2
		c-0.8,0.8-1.2,2.1-1.2,3.8v4.9c0,1.8,0.4,3.2,1.2,4c0.8,0.8,2.6,1.9,5.3,3.4c2.7,1.4,4.1,2.4,4.1,3v2.8c0,0.5-0.2,0.8-0.7,0.8h-2.9
		c-0.5,0-0.8-0.3-0.8-0.8v-3.3h-6.4v4.8c0,1.7,0.4,3,1.2,3.8c0.8,0.8,2.4,1.2,4.8,1.2h5.4c2.4,0,4-0.4,4.8-1.2
		c0.8-0.8,1.2-2.1,1.2-3.8v-4.7C-632.3,632.3-632.7,630.9-633.5,630.1z"/>
	<path class="st0" d="M-628.3,643.8h6.6V621h-6.6V643.8z M-628.3,614.3v5.1h6.6v-5.1H-628.3z"/>
	<path class="st0" d="M-597.4,614.3l-5.4,21l-5.4-21h-8.8v29.5h6.2v-20.4l5.3,20.4h5.8l5.1-20.4v20.4h6.2v-29.5H-597.4z"/>
</g>
</svg>
