<?xml version="1.0" encoding="utf-8"?>
<!-- Generator: Adobe Illustrator 19.0.0, SVG Export Plug-In . SVG Version: 6.00 Build 0)  -->
<svg version="1.1" id="Layer_1" xmlns="http://www.w3.org/2000/svg" xmlns:xlink="http://www.w3.org/1999/xlink" x="0px" y="0px"
	 viewBox="-687 613 100 32.2" style="enable-background:new -687 613 100 32.2;" xml:space="preserve">
<style type="text/css">
	.st0{fill:#FFFFFF;}
</style>
<path class="st0" d="M-664.7,620.1c-1,0.9-1.9,1.8-2.9,2.8c0.9-0.9,1.8-1.7,2.7-2.6C-664.8,620.2-664.8,620.2-664.7,620.1
	C-664.7,620.1-664.7,620.1-664.7,620.1C-664.7,620.1-664.7,620.1-664.7,620.1z M-664.3,619.8C-664.3,619.8-664.3,619.8-664.3,619.8
	c-0.1,0.1-0.2,0.2-0.3,0.3c0,0,0,0-0.1,0c0,0,0,0-0.1,0c-1,0.9-1.9,1.8-2.9,2.8c0.9-0.9,1.8-1.7,2.7-2.6c0.2-0.2,0.5-0.4,0.8-0.6
	C-664.2,619.7-664.2,619.7-664.3,619.8z M-664.7,620.1c-1,0.9-1.9,1.8-2.9,2.8c0.9-0.9,1.8-1.7,2.7-2.6
	C-664.8,620.2-664.8,620.2-664.7,620.1C-664.7,620.1-664.7,620.1-664.7,620.1C-664.7,620.1-664.7,620.1-664.7,620.1z"/>
<path class="st0" d="M-664.1,619.6c-0.3,0.2-0.5,0.4-0.8,0.6c0.1-0.1,0.1-0.1,0.2-0.2c0,0,0,0,0.1-0.1c0,0,0,0,0.1,0
	c0.1-0.1,0.2-0.2,0.3-0.2c0,0,0,0,0,0C-664.2,619.7-664.2,619.7-664.1,619.6z"/>
<g>
	<path class="st0" d="M-633,629.8c-0.8-0.8-2.6-1.9-5.4-3.4c-2.8-1.4-4.2-2.5-4.2-3.2v-2.8c0-0.5,0.2-0.8,0.7-0.8h3
		c0.5,0,0.8,0.3,0.8,0.8v3.3h6.2V619c0-1.7-0.4-3-1.2-3.8c-0.8-0.8-2.4-1.2-4.8-1.2h-5c-2.4,0-4,0.4-4.8,1.2
		c-0.8,0.8-1.2,2.1-1.2,3.8v4.9c0,1.8,0.4,3.2,1.2,4c0.8,0.8,2.6,1.9,5.3,3.4c2.7,1.4,4.1,2.4,4.1,3v2.8c0,0.5-0.2,0.8-0.7,0.8h-2.9
		c-0.5,0-0.8-0.3-0.8-0.8v-3.3h-6.4v4.8c0,1.7,0.4,3,1.2,3.8c0.8,0.8,2.4,1.2,4.8,1.2h5.4c2.4,0,4-0.4,4.8-1.2
		c0.8-0.8,1.2-2.1,1.2-3.8v-4.7C-631.8,632-632.2,630.6-633,629.8z"/>
	<path class="st0" d="M-627.7,643.5h6.6v-22.9h-6.6V643.5z M-627.7,614v5.1h6.6V614H-627.7z"/>
	<path class="st0" d="M-596.9,614l-5.4,21l-5.4-21h-8.8v29.5h6.2v-20.4l5.3,20.4h5.8l5.1-20.4v20.4h6.2V614H-596.9z"/>
</g>
<path id="svg_8_3_" class="st0" d="M-668.6,631.1C-668.6,631.1-668.6,631.1-668.6,631.1c-2.4-2.4-4.6-4.6-6.9-6.9l-1.2-1.2l-1.2,1.2
	c-1.8,1.8-3.7,3.6-5.5,5.5c-2.2,2.3-2.1,5.5,0.1,7.7c0.8,0.8,1.8,1.4,2.8,1.7c0.2,0.8,0.6,1.6,1.2,2.3c2.1,2.5,5.5,3.3,7.9,1.4
	c2.6-2.1,4.9-4.7,7.5-7.1C-665.6,634.1-667.1,632.6-668.6,631.1z M-672.1,641.6c-1.6,1.4-4.3,0.8-5.9-0.8c-0.5-0.5-0.8-1-1-1.6
	c-0.1-0.1-0.1-0.3-0.2-0.4c-0.2-0.8-0.3-1.6,0-2.4c0.1-0.3,0.2-0.5,0.3-0.7c0.2-0.4,0.4-0.7,0.7-1c1.8-1.9,3.7-3.8,5.5-5.7
	c0.8,0.8,1.6,1.6,2.4,2.4c0.2,0.2,0.4,0.4,0.6,0.6c0.3,0.3,0.6,0.6,0.9,0.9c0.9,0.9,1.8,1.8,2.7,2.8
	C-668,637.7-670,639.8-672.1,641.6z"/>
<path id="svg_8_2_" class="st0" d="M-671.5,626.9C-671.5,626.9-671.5,626.9-671.5,626.9c2.4,2.4,4.6,4.6,6.9,6.9l1.2,1.2l1.2-1.2
	c1.8-1.8,3.7-3.6,5.5-5.5c2.2-2.3,2.1-5.5-0.1-7.7c-0.8-0.8-1.8-1.4-2.8-1.7c-0.2-0.8-0.6-1.6-1.2-2.3c-2.1-2.5-5.5-3.3-7.9-1.4
	c-2.6,2.1-4.9,4.7-7.5,7.1C-674.5,623.8-673,625.3-671.5,626.9z M-668,616.3c1.6-1.4,4.3-0.8,5.9,0.8c0.5,0.5,0.8,1,1,1.6
	c0.1,0.1,0.1,0.3,0.2,0.4c0.2,0.8,0.3,1.6,0,2.4c-0.1,0.3-0.2,0.5-0.3,0.7c-0.2,0.4-0.4,0.7-0.7,1c-1.8,1.9-3.7,3.8-5.5,5.7
	c-0.8-0.8-1.6-1.6-2.4-2.4c-0.2-0.2-0.4-0.4-0.6-0.6c-0.3-0.3-0.6-0.6-0.9-0.9c-0.9-0.9-1.8-1.8-2.7-2.8
	C-672.1,620.2-670.1,618.1-668,616.3z"/>
</svg>
