<?xml version="1.0" encoding="utf-8"?>
<!-- Generator: Adobe Illustrator 19.0.0, SVG Export Plug-In . SVG Version: 6.00 Build 0)  -->
<svg version="1.1" id="Layer_1" xmlns="http://www.w3.org/2000/svg" xmlns:xlink="http://www.w3.org/1999/xlink" x="0px" y="0px"
	 viewBox="-687 613 100 32.2" style="enable-background:new -687 613 100 32.2;" xml:space="preserve">
<style type="text/css">
	.st0{fill:#225A6D;}
	.st1{fill:#DFEBE5;}
	.st2{fill:#3CA2A2;}
</style>
<path class="st0" d="M-657.4,628.5c2.1-2.3,2-5.5-0.1-7.7c-0.8-0.8-1.8-1.4-2.8-1.7c-0.2-0.8-0.6-1.6-1.2-2.3
	c-2.1-2.5-5.5-3.3-7.8-1.4c-2.6,2.1-4.9,4.6-7.4,7.1c1.6,1.6,3.1,3.1,4.6,4.6c0,0,0,0,0,0c2.3,2.3,4.5,4.5,6.7,6.7l0,0l1.3,1.3
	l1.3-1.3l0,0C-660.9,632.1-659.1,630.3-657.4,628.5 M-665.4,620.4c-1.9,1.8-3.8,3.7-5.8,5.7c-1.2-1.2-2.3-2.4-3.6-3.6
	c2-2,4-4.1,6.1-5.9c1.6-1.3,4.3-0.8,5.8,0.8c0.5,0.5,0.8,1,1,1.6C-663.1,619-664.3,619.5-665.4,620.4"/>
<path class="st0" d="M-664.5,636.3c-1.6-1.6-3.1-3.1-4.6-4.6c0,0,0,0,0,0c-2.4-2.4-4.6-4.6-6.8-6.8l0,0l-1.2-1.2l-1.2,1.2l0,0
	c-1.8,1.8-3.7,3.6-5.4,5.5c-2.1,2.3-2,5.5,0.1,7.7c0.8,0.8,1.8,1.4,2.8,1.7c0.2,0.8,0.6,1.6,1.2,2.3c2.1,2.5,5.5,3.3,7.8,1.4
	C-669.3,641.3-667,638.8-664.5,636.3 M-672.5,642.2c-1.6,1.3-4.3,0.8-5.8-0.8c-0.5-0.5-0.8-1-1-1.6c1.3,0,2.5-0.5,3.6-1.5
	c1.9-1.8,3.8-3.7,5.8-5.7c1.2,1.2,2.3,2.4,3.6,3.6C-668.5,638.3-670.4,640.4-672.5,642.2"/>
<path class="st1" d="M-668.1,629.2c-2.1-2.1-4.2-4.3-6.6-6.7c2-2,4-4.1,6.1-5.9c1.6-1.3,4.3-0.8,5.8,0.8c1.7,1.8,1.9,4.4,0.2,6.2
	C-664.4,625.5-666.3,627.3-668.1,629.2"/>
<path class="st1" d="M-673,629.6c2.1,2.1,4.2,4.3,6.6,6.7c-2,2-4,4.1-6.1,5.9c-1.6,1.3-4.3,0.8-5.8-0.8c-1.7-1.8-1.9-4.4-0.2-6.2
	C-676.8,633.3-674.9,631.5-673,629.6"/>
<path class="st2" d="M-662.6,623.6c1.2-1.3,1.5-3.1,0.8-4.6c-1.3,0-2.5,0.5-3.6,1.5c-1.9,1.8-3.8,3.7-5.8,5.7c1,1,2,2.1,3,3.1
	C-666.3,627.3-664.4,625.5-662.6,623.6"/>
<path class="st2" d="M-678.5,635.2c-1.2,1.3-1.5,3.1-0.8,4.6c1.3,0,2.5-0.5,3.6-1.5c1.9-1.8,3.8-3.7,5.8-5.7c-1-1-2-2.1-3-3.1
	C-674.9,631.5-676.8,633.3-678.5,635.2"/>
<g>
	<path class="st0" d="M-633.6,630.1c-0.8-0.8-2.6-1.9-5.4-3.4c-2.8-1.4-4.2-2.5-4.2-3.2v-2.8c0-0.5,0.2-0.8,0.7-0.8h3
		c0.5,0,0.8,0.3,0.8,0.8v3.3h6.2v-4.8c0-1.7-0.4-3-1.2-3.8c-0.8-0.8-2.4-1.2-4.8-1.2h-5c-2.4,0-4,0.4-4.8,1.2
		c-0.8,0.8-1.2,2.1-1.2,3.8v4.9c0,1.8,0.4,3.2,1.2,4c0.8,0.8,2.6,1.9,5.3,3.4c2.7,1.4,4.1,2.4,4.1,3v2.8c0,0.5-0.2,0.8-0.7,0.8h-2.9
		c-0.5,0-0.8-0.3-0.8-0.8v-3.3h-6.4v4.8c0,1.7,0.4,3,1.2,3.8c0.8,0.8,2.4,1.2,4.8,1.2h5.4c2.4,0,4-0.4,4.8-1.2
		c0.8-0.8,1.2-2.1,1.2-3.8v-4.7C-632.4,632.3-632.8,630.9-633.6,630.1z"/>
	<path class="st2" d="M-628.4,643.8h6.6V621h-6.6V643.8z M-628.4,614.3v5.1h6.6v-5.1H-628.4z"/>
	<path class="st0" d="M-597.5,614.3l-5.4,21l-5.4-21h-8.8v29.5h6.2v-20.4l5.3,20.4h5.8l5.1-20.4v20.4h6.2v-29.5H-597.5z"/>
</g>
</svg>
