<?xml version="1.0" encoding="utf-8"?>
<!-- Generator: Adobe Illustrator 19.0.0, SVG Export Plug-In . SVG Version: 6.00 Build 0)  -->
<svg version="1.1" id="Layer_1" xmlns="http://www.w3.org/2000/svg" xmlns:xlink="http://www.w3.org/1999/xlink" x="0px" y="0px"
	 viewBox="-687 613 104.5 39.9" style="enable-background:new -687 613 104.5 39.9;" xml:space="preserve">
<style type="text/css">
	@font-face {
		font-family: "UPBOLTERS";
		src: url("/static/fonts/UPBOLTERS.otf") format("opentype");
	}
	.st0{fill:none;}
	.st1{fill:#FFFFFF;}
	.st2{font-family:'UPBOLTERS';}
	.st3{font-size:6px;}
</style>
<rect x="-683.4" y="646.8" class="st0" width="102.1" height="6.9"/>
<text transform="matrix(1 0 0 1 -683.4249 650.9773)" class="st1 st2 st3">Sistema de Interação Medicamentosa</text>
<path class="st1" d="M-655.3,621.3c-0.8-0.8-1.8-1.4-2.8-1.6c-0.2-0.8-0.6-1.6-1.2-2.3c-2.1-2.5-5.5-3.3-7.8-1.4
	c-2.6,2.1-4.9,4.6-7.4,7c1.6,1.6,3.1,3.1,4.6,4.6c0,0,0,0,0,0c2.3,2.3,4.5,4.5,6.7,6.7l1.3,1.3l1.3-1.3c1.8-1.8,3.6-3.5,5.3-5.4
	C-653.1,626.7-653.2,623.5-655.3,621.3z M-672.6,623c2-2,4-4.1,6.1-5.9c1.6-1.3,4.3-0.8,5.8,0.8c0.4,0.5,0.8,1,1,1.6
	c-1,0-1.9,0.3-2.8,0.8c-0.1,0-0.1,0.1-0.2,0.2c0,0,0,0,0,0c-0.3,0.2-0.5,0.4-0.8,0.6c-0.9,0.9-1.8,1.7-2.7,2.6c-1,1-1.9,1.9-2.9,2.9
	C-670.1,625.5-671.3,624.3-672.6,623z M-660.5,624.1c-0.9,1-1.8,1.9-2.7,2.8c-0.5,0.5-0.9,0.9-1.4,1.4c-0.5,0.5-0.9,0.9-1.3,1.4
	c-0.7-0.7-1.4-1.4-2.1-2.1c2-2,4-4.1,6.1-5.9c0.7-0.6,1.7-0.8,2.7-0.7C-659.2,622-659.6,623.2-660.5,624.1z"/>
<path class="st1" d="M-681.8,638.3c0.8,0.8,1.8,1.4,2.8,1.6c0.2,0.8,0.6,1.6,1.2,2.3c2.1,2.5,5.5,3.3,7.8,1.4c2.6-2.1,4.9-4.6,7.4-7
	c-1.6-1.6-3.1-3.1-4.6-4.6c0,0,0,0,0,0c-2.3-2.3-4.5-4.5-6.7-6.7l-1.3-1.3l-1.3,1.3c-1.8,1.8-3.6,3.5-5.3,5.4
	C-684.1,632.8-684,636-681.8,638.3z M-664.6,636.6c-2,2-4,4.1-6.1,5.9c-1.6,1.3-4.3,0.8-5.8-0.8c-0.4-0.5-0.8-1-1-1.6
	c1,0,1.9-0.3,2.8-0.8c0.1,0,0.1-0.1,0.2-0.2c0,0,0,0,0,0c0.3-0.2,0.5-0.4,0.8-0.6c0.9-0.9,1.8-1.7,2.7-2.6c1-1,1.9-1.9,2.9-2.9
	C-667,634.1-665.9,635.3-664.6,636.6z M-676.7,635.5c0.9-1,1.8-1.9,2.7-2.8c0.5-0.5,0.9-0.9,1.4-1.4c0.5-0.5,0.9-0.9,1.3-1.4
	c0.7,0.7,1.4,1.4,2.1,2.1c-2,2-4,4.1-6.1,5.9c-0.7,0.6-1.7,0.8-2.7,0.7C-678,637.6-677.6,636.4-676.7,635.5z"/>
<path class="st1" d="M-662.6,620.5c-0.3,0.2-0.5,0.4-0.8,0.6c0.1-0.1,0.1-0.1,0.2-0.2c0,0,0,0,0.1-0.1c0,0,0,0,0.1,0
	c0.1-0.1,0.2-0.2,0.3-0.2c0,0,0,0,0,0C-662.7,620.6-662.7,620.5-662.6,620.5z"/>
<g>
	<path class="st1" d="M-631.5,630.7c-0.8-0.8-2.6-1.9-5.4-3.4c-2.8-1.4-4.2-2.5-4.2-3.2v-2.8c0-0.5,0.2-0.8,0.7-0.8h3
		c0.5,0,0.8,0.3,0.8,0.8v3.3h6.2v-4.8c0-1.7-0.4-3-1.2-3.8c-0.8-0.8-2.4-1.2-4.8-1.2h-5c-2.4,0-4,0.4-4.8,1.2
		c-0.8,0.8-1.2,2.1-1.2,3.8v4.9c0,1.8,0.4,3.2,1.2,4c0.8,0.8,2.6,1.9,5.3,3.4c2.7,1.4,4.1,2.4,4.1,3v2.8c0,0.5-0.2,0.8-0.7,0.8h-2.9
		c-0.5,0-0.8-0.3-0.8-0.8v-3.3h-6.4v4.8c0,1.7,0.4,3,1.2,3.8c0.8,0.8,2.4,1.2,4.8,1.2h5.4c2.4,0,4-0.4,4.8-1.2
		c0.8-0.8,1.2-2.1,1.2-3.8v-4.7C-630.3,632.8-630.7,631.5-631.5,630.7z"/>
	<path class="st1" d="M-626.2,644.4h6.6v-22.9h-6.6V644.4z M-626.2,614.9v5.1h6.6v-5.1H-626.2z"/>
	<path class="st1" d="M-595.4,614.9l-5.4,21l-5.4-21h-8.8v29.5h6.2V624l5.3,20.4h5.8l5.1-20.4v20.4h6.2v-29.5H-595.4z"/>
</g>
</svg>
