<?xml version="1.0" encoding="utf-8"?>
<!-- Generator: Adobe Illustrator 19.0.0, SVG Export Plug-In . SVG Version: 6.00 Build 0)  -->
<svg version="1.1" id="Layer_1" xmlns="http://www.w3.org/2000/svg" xmlns:xlink="http://www.w3.org/1999/xlink" x="0px" y="0px"
	 viewBox="-687 613 104.5 39.9" style="enable-background:new -687 613 104.5 39.9;" xml:space="preserve">
<style type="text/css">
	@font-face {
		font-family: "UPBOLTERS";
		src: url("/static/fonts/UPBOLTERS.otf") format("opentype");
	}
	.st0{fill:none;}
	.st1{fill:#FFFFFF;}
	.st2{font-family:'UPBOLTERS';}
	.st3{font-size:6px;}
</style>
<rect x="-684.9" y="646.5" class="st0" width="102.1" height="6.9"/>
<text transform="matrix(1 0 0 1 -684.8979 650.6567)" class="st1 st2 st3">Sistema de Interação Medicamentosa</text>
<g>
	<path class="st1" d="M-633,630.3c-0.8-0.8-2.6-1.9-5.4-3.4c-2.8-1.4-4.2-2.5-4.2-3.2V621c0-0.5,0.2-0.8,0.7-0.8h3
		c0.5,0,0.8,0.3,0.8,0.8v3.3h6.2v-4.8c0-1.7-0.4-3-1.2-3.8c-0.8-0.8-2.4-1.2-4.8-1.2h-5c-2.4,0-4,0.4-4.8,1.2
		c-0.8,0.8-1.2,2.1-1.2,3.8v4.9c0,1.8,0.4,3.2,1.2,4c0.8,0.8,2.6,1.9,5.3,3.4c2.7,1.4,4.1,2.4,4.1,3v2.8c0,0.5-0.2,0.8-0.7,0.8h-2.9
		c-0.5,0-0.8-0.3-0.8-0.8v-3.3h-6.4v4.8c0,1.7,0.4,3,1.2,3.8c0.8,0.8,2.4,1.2,4.8,1.2h5.4c2.4,0,4-0.4,4.8-1.2
		c0.8-0.8,1.2-2.1,1.2-3.8v-4.7C-631.8,632.5-632.2,631.2-633,630.3z"/>
	<path class="st1" d="M-627.8,644.1h6.6v-22.9h-6.6V644.1z M-627.8,614.5v5.1h6.6v-5.1H-627.8z"/>
	<path class="st1" d="M-596.9,614.5l-5.4,21l-5.4-21h-8.8v29.5h6.2v-20.4l5.3,20.4h5.8l5.1-20.4v20.4h6.2v-29.5H-596.9z"/>
</g>
<path id="svg_8_5_" class="st1" d="M-668.7,631.6C-668.7,631.6-668.7,631.6-668.7,631.6c-2.4-2.4-4.6-4.6-6.9-6.9l-1.2-1.2l-1.2,1.2
	c-1.8,1.8-3.7,3.6-5.5,5.5c-2.2,2.3-2.1,5.5,0.1,7.7c0.8,0.8,1.8,1.4,2.8,1.7c0.2,0.8,0.6,1.6,1.2,2.3c2.1,2.5,5.5,3.3,7.9,1.4
	c2.6-2.1,4.9-4.7,7.5-7.1C-665.6,634.6-667.2,633.1-668.7,631.6z M-672.2,642.2c-1.6,1.4-4.3,0.8-5.9-0.8c-0.5-0.5-0.8-1-1-1.6
	c-0.1-0.1-0.1-0.3-0.2-0.4c-0.2-0.8-0.3-1.6,0-2.4c0.1-0.3,0.2-0.5,0.3-0.7c0.2-0.4,0.4-0.7,0.7-1c1.8-1.9,3.7-3.8,5.5-5.7
	c0.8,0.8,1.6,1.6,2.4,2.4c0.2,0.2,0.4,0.4,0.6,0.6c0.3,0.3,0.6,0.6,0.9,0.9c0.9,0.9,1.8,1.8,2.7,2.8
	C-668.1,638.2-670,640.3-672.2,642.2z"/>
<path id="svg_8_4_" class="st1" d="M-671.6,627.4C-671.6,627.4-671.6,627.4-671.6,627.4c2.4,2.4,4.6,4.6,6.9,6.9l1.2,1.2l1.2-1.2
	c1.8-1.8,3.7-3.6,5.5-5.5c2.2-2.3,2.1-5.5-0.1-7.7c-0.8-0.8-1.8-1.4-2.8-1.7c-0.2-0.8-0.6-1.6-1.2-2.3c-2.1-2.5-5.5-3.3-7.9-1.4
	c-2.6,2.1-4.9,4.7-7.5,7.1C-674.6,624.4-673.1,625.9-671.6,627.4z M-668.1,616.8c1.6-1.4,4.3-0.8,5.9,0.8c0.5,0.5,0.8,1,1,1.6
	c0.1,0.1,0.1,0.3,0.2,0.4c0.2,0.8,0.3,1.6,0,2.4c-0.1,0.3-0.2,0.5-0.3,0.7c-0.2,0.4-0.4,0.7-0.7,1c-1.8,1.9-3.7,3.8-5.5,5.7
	c-0.8-0.8-1.6-1.6-2.4-2.4c-0.2-0.2-0.4-0.4-0.6-0.6c-0.3-0.3-0.6-0.6-0.9-0.9c-0.9-0.9-1.8-1.8-2.7-2.8
	C-672.1,620.8-670.2,618.7-668.1,616.8z"/>
</svg>
