<?xml version="1.0" encoding="utf-8"?>
<!-- Generator: Adobe Illustrator 19.0.0, SVG Export Plug-In . SVG Version: 6.00 Build 0)  -->
<svg version="1.1" id="Layer_1" xmlns="http://www.w3.org/2000/svg" xmlns:xlink="http://www.w3.org/1999/xlink" x="0px" y="0px"
	 viewBox="-687 613 104.5 39.9" style="enable-background:new -687 613 104.5 39.9;" xml:space="preserve">
<style type="text/css">
	@font-face {
	    font-family: "UPBOLTERS";
	    src: url("/static/fonts/UPBOLTERS.otf") format("opentype");
	}
	.st0{fill:#225A6D;}
	.st1{fill:#DFEBE5;}
	.st2{fill:#3CA2A2;}
	.st3{fill:none;}
	.st4{font-family:"UPBOLTERS";}
	.st5{font-size:6px;}
</style>
<path class="st0" d="M-656.5,628.7c2.1-2.3,2-5.5-0.1-7.7c-0.8-0.8-1.8-1.4-2.8-1.7c-0.2-0.8-0.6-1.6-1.2-2.3
	c-2.1-2.5-5.5-3.3-7.8-1.4c-2.6,2.1-4.9,4.6-7.4,7.1c1.6,1.6,3.1,3.1,4.6,4.6c0,0,0,0,0,0c2.3,2.3,4.5,4.5,6.7,6.7l0,0l1.3,1.3
	l1.3-1.3l0,0C-660,632.3-658.2,630.5-656.5,628.7 M-664.5,620.7c-1.9,1.8-3.8,3.7-5.8,5.7c-1.2-1.2-2.3-2.4-3.6-3.6
	c2-2,4-4.1,6.1-5.9c1.6-1.3,4.3-0.8,5.8,0.8c0.5,0.5,0.8,1,1,1.6C-662.2,619.2-663.4,619.7-664.5,620.7"/>
<path class="st0" d="M-663.6,636.5c-1.6-1.6-3.1-3.1-4.6-4.6c0,0,0,0,0,0c-2.4-2.4-4.6-4.6-6.8-6.8l0,0l-1.2-1.2l-1.2,1.2l0,0
	c-1.8,1.8-3.7,3.6-5.4,5.5c-2.1,2.3-2,5.5,0.1,7.7c0.8,0.8,1.8,1.4,2.8,1.7c0.2,0.8,0.6,1.6,1.2,2.3c2.1,2.5,5.5,3.3,7.8,1.4
	C-668.4,641.5-666.1,639-663.6,636.5 M-671.6,642.5c-1.6,1.3-4.3,0.8-5.8-0.8c-0.5-0.5-0.8-1-1-1.6c1.3,0,2.5-0.5,3.6-1.5
	c1.9-1.8,3.8-3.7,5.8-5.7c1.2,1.2,2.3,2.4,3.6,3.6C-667.6,638.5-669.5,640.6-671.6,642.5"/>
<path class="st1" d="M-667.2,629.4c-2.1-2.1-4.2-4.3-6.6-6.7c2-2,4-4.1,6.1-5.9c1.6-1.3,4.3-0.8,5.8,0.8c1.7,1.8,1.9,4.4,0.2,6.2
	C-663.5,625.7-665.4,627.5-667.2,629.4"/>
<path class="st1" d="M-672.1,629.8c2.1,2.1,4.2,4.3,6.6,6.7c-2,2-4,4.1-6.1,5.9c-1.6,1.3-4.3,0.8-5.8-0.8c-1.7-1.8-1.9-4.4-0.2-6.2
	C-675.9,633.5-674,631.7-672.1,629.8"/>
<path class="st2" d="M-661.7,623.8c1.2-1.3,1.5-3.1,0.8-4.6c-1.3,0-2.5,0.5-3.6,1.5c-1.9,1.8-3.8,3.7-5.8,5.7c1,1,2,2.1,3,3.1
	C-665.4,627.5-663.5,625.7-661.7,623.8"/>
<path class="st2" d="M-677.6,635.5c-1.2,1.3-1.5,3.1-0.8,4.6c1.3,0,2.5-0.5,3.6-1.5c1.9-1.8,3.8-3.7,5.8-5.7c-1-1-2-2.1-3-3.1
	C-674,631.7-675.9,633.5-677.6,635.5"/>
<g>
	<rect x="-684.6" y="646.4" class="st3" width="102.1" height="6.9"/>
	<text transform="matrix(1 0 0 1 -684.5597 650.625)" class="st0 st4 st5">Sistema de Interação Medicamentosa</text>
</g>
<g>
	<path class="st0" d="M-632.7,630.3c-0.8-0.8-2.6-1.9-5.4-3.4c-2.8-1.4-4.2-2.5-4.2-3.2V621c0-0.5,0.2-0.8,0.7-0.8h3
		c0.5,0,0.8,0.3,0.8,0.8v3.3h6.2v-4.8c0-1.7-0.4-3-1.2-3.8c-0.8-0.8-2.4-1.2-4.8-1.2h-5c-2.4,0-4,0.4-4.8,1.2
		c-0.8,0.8-1.2,2.1-1.2,3.8v4.9c0,1.8,0.4,3.2,1.2,4c0.8,0.8,2.6,1.9,5.3,3.4c2.7,1.4,4.1,2.4,4.1,3v2.8c0,0.5-0.2,0.8-0.7,0.8h-2.9
		c-0.5,0-0.8-0.3-0.8-0.8v-3.3h-6.4v4.8c0,1.7,0.4,3,1.2,3.8c0.8,0.8,2.4,1.2,4.8,1.2h5.4c2.4,0,4-0.4,4.8-1.2
		c0.8-0.8,1.2-2.1,1.2-3.8v-4.7C-631.5,632.5-631.9,631.2-632.7,630.3z"/>
	<path class="st2" d="M-627.5,644.1h6.6v-22.9h-6.6V644.1z M-627.5,614.5v5.1h6.6v-5.1H-627.5z"/>
	<path class="st0" d="M-596.6,614.5l-5.4,21l-5.4-21h-8.8v29.5h6.2v-20.4l5.3,20.4h5.8l5.1-20.4v20.4h6.2v-29.5H-596.6z"/>
</g>
</svg>
